<svg xmlns="http://www.w3.org/2000/svg" width="831" height="108" viewBox="0 0 831 108"><title>thedeerchild</title><g fill="none"><g fill="#FFF"><path d="M26.7 107C21.6 107 17.7 105.3 15.1 101.8 12.5 98.4 11.1 93.3 11.1 86.5L11.1 36.9 0.2 36.9 0.2 34 11.1 34 11.1 16.3 14 16.3 14 34 40.3 34 40.3 36.9 14 36.9 14 86.5C14 92.3 15.1 96.7 17.3 99.7 19.4 102.6 22.6 104.1 26.7 104.1 31.5 104.1 35.9 102.5 40 99.3L41.7 101.7C36.9 105.2 31.9 107 26.7 107L26.7 107ZM114.6 40.3C119.8 45.5 122.3 52.7 122.3 61.9L122.3 107 119.4 107 119.4 61.9C119.4 53.6 117.1 47.1 112.4 42.4 107.8 37.8 101.3 35.4 93.1 35.4 83.2 35.6 75.5 38.8 69.9 45 64.3 51.2 61.5 59.7 61.5 70.6L61.5 107 58.7 107 58.7 0.1 61.5 0.1 61.5 54C63.9 47.3 67.8 42.1 73.2 38.3 78.6 34.6 85.2 32.6 93.1 32.5 102.3 32.5 109.5 35.1 114.6 40.3L114.6 40.3ZM190.9 101.3C195.5 99.4 199.3 96.8 202.4 93.3L204.4 95.3C200.9 99.1 196.8 102 191.9 104 187 106 181.7 107 176 107 169.2 107 163.1 105.4 157.7 102.2 152.3 99 148 94.5 144.9 88.9 141.7 83.2 140.1 76.8 140.1 69.7 140.1 62.6 141.7 56.2 144.9 50.5 148 44.9 152.3 40.4 157.7 37.3 163.1 34.1 169.2 32.5 176 32.5 182.8 32.5 188.8 34.1 194.1 37.3 199.3 40.4 203.4 44.9 206.3 50.5 209.2 56.2 210.6 62.6 210.6 69.7L143 69.7C143 76.3 144.4 82.3 147.3 87.5 150.1 92.7 154 96.8 159 99.7 164 102.7 169.7 104.1 176 104.1 181.4 104.1 186.4 103.2 190.9 101.3L190.9 101.3ZM159.8 39.4C155 42 151.1 45.7 148.2 50.5 145.3 55.3 143.6 60.7 143.2 66.9L207.7 66.9C207.1 57.4 203.9 49.8 198.2 44.1 192.5 38.3 185.1 35.4 176 35.4 170 35.4 164.7 36.7 159.8 39.4L159.8 39.4ZM294.9 107L292 107 292 85.1C289.2 91.9 284.9 97.3 279 101.3 273.1 105.3 266.2 107.3 258.4 107.3 251.5 107.3 245.3 105.7 239.7 102.5 234.1 99.3 229.8 94.8 226.6 89.1 223.5 83.4 221.9 77 221.9 69.9 221.9 62.7 223.5 56.3 226.6 50.5 229.8 44.8 234.1 40.3 239.7 37.1 245.2 33.9 251.5 32.3 258.4 32.3 266.2 32.3 273 34.2 278.9 38.2 284.8 42.2 289.2 47.6 292 54.4L292 0.1 294.9 0.1 294.9 107ZM275.7 99.9C280.8 97 284.8 92.9 287.6 87.6 290.5 82.4 292 76.5 292 69.9 292 63.3 290.5 57.3 287.6 52 284.8 46.7 280.8 42.6 275.7 39.6 270.6 36.6 264.9 35.1 258.4 35.1 252 35.1 246.2 36.6 241.1 39.6 236 42.6 232 46.7 229.1 52 226.3 57.3 224.8 63.2 224.8 69.9 224.8 76.5 226.3 82.4 229.1 87.6 232 92.9 236 97 241.1 99.9 246.2 102.9 252 104.4 258.4 104.4 264.9 104.4 270.6 102.9 275.7 99.9L275.7 99.9ZM366.6 101.3C371.2 99.4 375 96.8 378.1 93.3L380.1 95.3C376.6 99.1 372.4 102 367.5 104 362.6 106 357.4 107 351.7 107 344.9 107 338.8 105.4 333.4 102.2 328 99 323.7 94.5 320.5 88.9 317.4 83.2 315.8 76.8 315.8 69.7 315.8 62.6 317.4 56.2 320.5 50.5 323.7 44.9 328 40.4 333.4 37.3 338.8 34.1 344.9 32.5 351.7 32.5 358.5 32.5 364.5 34.1 369.8 37.3 375 40.4 379.1 44.9 382 50.5 384.8 56.2 386.3 62.6 386.3 69.7L318.7 69.7C318.7 76.3 320.1 82.3 323 87.5 325.8 92.7 329.7 96.8 334.7 99.7 339.7 102.7 345.4 104.1 351.7 104.1 357.1 104.1 362.1 103.2 366.6 101.3L366.6 101.3ZM335.5 39.4C330.7 42 326.8 45.7 323.9 50.5 320.9 55.3 319.3 60.7 318.9 66.9L383.4 66.9C382.7 57.4 379.6 49.8 373.9 44.1 368.2 38.3 360.8 35.4 351.7 35.4 345.7 35.4 340.3 36.7 335.5 39.4L335.5 39.4ZM448.4 101.3C453 99.4 456.8 96.8 459.9 93.3L461.9 95.3C458.4 99.1 454.2 102 449.3 104 444.4 106 439.2 107 433.5 107 426.7 107 420.6 105.4 415.2 102.2 409.8 99 405.5 94.5 402.3 88.9 399.2 83.2 397.6 76.8 397.6 69.7 397.6 62.6 399.2 56.2 402.3 50.5 405.5 44.9 409.8 40.4 415.2 37.3 420.6 34.1 426.7 32.5 433.5 32.5 440.3 32.5 446.3 34.1 451.6 37.3 456.8 40.4 460.9 44.9 463.8 50.5 466.6 56.2 468.1 62.6 468.1 69.7L400.5 69.7C400.5 76.3 401.9 82.3 404.8 87.5 407.6 92.7 411.5 96.8 416.5 99.7 421.5 102.7 427.2 104.1 433.5 104.1 438.9 104.1 443.9 103.2 448.4 101.3L448.4 101.3ZM417.3 39.4C412.5 42 408.6 45.7 405.7 50.5 402.7 55.3 401.1 60.7 400.7 66.9L465.2 66.9C464.5 57.4 461.4 49.8 455.7 44.1 450 38.3 442.6 35.4 433.5 35.4 427.5 35.4 422.1 36.7 417.3 39.4L417.3 39.4ZM501.3 38C506.2 34.5 512.2 32.6 519.2 32.5L519.2 35.4C510.8 35.6 504.1 38.4 499.1 43.9 494.2 49.3 491.4 56.7 490.7 66.2L490.7 107 487.8 107 487.8 32.5 490.7 32.5 490.7 52.9C492.9 46.5 496.4 41.6 501.3 38L501.3 38ZM575.1 35.1C579.5 36.9 583.3 39.3 586.6 42.5L584.7 44.5C578.1 38.4 570.3 35.4 561.3 35.4 555 35.4 549.2 36.9 544.1 39.8 539 42.7 535 46.8 532.1 52 529.3 57.2 527.8 63.1 527.8 69.7 527.8 76.3 529.3 82.3 532.1 87.5 535 92.7 539 96.8 544.1 99.7 549.2 102.7 554.9 104.1 561.3 104.1 566.4 104.1 571.1 103.2 575.3 101.3 579.6 99.4 583.2 96.8 586.3 93.3L588.2 95.3C584.9 99.1 581 102 576.3 104 571.6 106 566.6 107 561.3 107 554.5 107 548.3 105.4 542.8 102.2 537.3 99 532.9 94.5 529.8 88.9 526.6 83.2 525.1 76.8 525.1 69.7 525.1 62.6 526.6 56.2 529.8 50.5 532.9 44.9 537.3 40.4 542.8 37.3 548.3 34.1 554.4 32.5 561.3 32.5 566.2 32.5 570.8 33.4 575.1 35.1L575.1 35.1ZM667.3 40.3C672.4 45.5 675 52.7 675 61.9L675 107 672.1 107 672.1 61.9C672.1 53.6 669.8 47.1 665.1 42.4 660.5 37.8 654 35.4 645.8 35.4 635.9 35.6 628.1 38.8 622.6 45 617 51.2 614.2 59.7 614.2 70.6L614.2 107 611.4 107 611.4 0.1 614.2 0.1 614.2 54C616.6 47.3 620.5 42.1 625.9 38.3 631.3 34.6 637.9 32.6 645.8 32.5 655 32.5 662.2 35.1 667.3 40.3L667.3 40.3ZM701.2 107L701.2 32.5 704.1 32.5 704.1 107 701.2 107ZM705.3 8.5C706 9.2 706.4 10.1 706.4 11.1 706.4 12 706 12.9 705.3 13.7 704.6 14.4 703.7 14.8 702.6 14.8 701.7 14.8 700.8 14.4 700 13.7 699.3 12.9 698.9 12.1 698.9 11.1 698.9 10 699.3 9.1 700 8.4 700.8 7.7 701.7 7.4 702.6 7.4 703.7 7.4 704.6 7.7 705.3 8.5L705.3 8.5ZM733.5 107L733.5 0.1 736.3 0.1 736.3 107 733.5 107ZM830.3 107L827.4 107 827.4 85.1C824.6 91.9 820.3 97.3 814.4 101.3 808.5 105.3 801.6 107.3 793.8 107.3 786.9 107.3 780.7 105.7 775.1 102.5 769.6 99.3 765.2 94.8 762.1 89.1 758.9 83.4 757.3 77 757.3 69.9 757.3 62.7 758.9 56.3 762.1 50.5 765.2 44.8 769.5 40.3 775.1 37.1 780.7 33.9 786.9 32.3 793.8 32.3 801.6 32.3 808.4 34.2 814.3 38.2 820.2 42.2 824.6 47.6 827.4 54.4L827.4 0.1 830.3 0.1 830.3 107ZM811.1 99.9C816.2 97 820.2 92.9 823.1 87.6 825.9 82.4 827.4 76.5 827.4 69.9 827.4 63.3 825.9 57.3 823.1 52 820.2 46.7 816.2 42.6 811.1 39.6 806 36.6 800.3 35.1 793.8 35.1 787.4 35.1 781.6 36.6 776.5 39.6 771.4 42.6 767.4 46.7 764.6 52 761.7 57.3 760.2 63.2 760.2 69.9 760.2 76.5 761.7 82.4 764.6 87.6 767.4 92.9 771.4 97 776.5 99.9 781.6 102.9 787.4 104.4 793.8 104.4 800.3 104.4 806 102.9 811.1 99.9L811.1 99.9Z"/></g></g></svg>