<?xml version="1.0" encoding="UTF-8" standalone="no"?>
<svg width="831px" height="108px" viewBox="0 0 831 108" version="1.1" xmlns="http://www.w3.org/2000/svg" xmlns:xlink="http://www.w3.org/1999/xlink">
    <!-- Generator: Sketch 39.1 (31720) - http://www.bohemiancoding.com/sketch -->
    <title>thedeerchild</title>
    <desc>Created with Sketch.</desc>
    <defs></defs>
    <g id="Page-1" stroke="none" stroke-width="1" fill="none" fill-rule="evenodd">
        <g id="Desktop-HD-Copy-7" transform="translate(-62.000000, -218.000000)" fill="#FFFFFF">
            <g id="Group" transform="translate(55.000000, 180.000000)">
                <path d="M33.6796875,145 C28.570287,145 24.7031381,143.277361 22.078125,139.832031 C19.4531119,136.386702 18.140625,131.289096 18.140625,124.539062 L18.140625,74.8984375 L7.171875,74.8984375 L7.171875,72.015625 L18.140625,72.015625 L18.140625,54.296875 L21.0234375,54.296875 L21.0234375,72.015625 L47.25,72.015625 L47.25,74.8984375 L21.0234375,74.8984375 L21.0234375,124.539062 C21.0234375,130.304716 22.1015517,134.675766 24.2578125,137.652344 C26.4140733,140.628921 29.5546669,142.117188 33.6796875,142.117188 C38.4609614,142.117188 42.8906046,140.523453 46.96875,137.335938 L48.65625,139.65625 C43.8749761,143.218768 38.8828385,145 33.6796875,145 L33.6796875,145 Z M121.628906,78.3085938 C126.761744,83.4883071 129.328125,90.6952663 129.328125,99.9296875 L129.328125,145 L126.445312,145 L126.445312,99.9296875 C126.445312,91.5858958 124.113305,85.0820546 119.449219,80.4179688 C114.785133,75.7538829 108.328166,73.421875 100.078125,73.421875 C90.1874505,73.6093759 82.4531529,76.7968441 76.875,82.984375 C71.2968471,89.1719059 68.5078125,97.7030706 68.5078125,108.578125 L68.5078125,145 L65.6953125,145 L65.6953125,38.125 L68.5078125,38.125 L68.5078125,91.984375 C70.8984495,85.2812165 74.7890355,80.0547062 80.1796875,76.3046875 C85.5703395,72.5546687 92.2030856,70.632813 100.078125,70.5390625 C109.312546,70.5390625 116.496068,73.1288804 121.628906,78.3085938 L121.628906,78.3085938 Z M197.941406,139.304688 C202.511742,137.429678 206.320297,134.75783 209.367188,131.289062 L211.40625,133.328125 C207.937483,137.078144 203.753931,139.960927 198.855469,141.976562 C193.957007,143.992198 188.671903,145 183,145 C176.203091,145 170.097683,143.394547 164.683594,140.183594 C159.269504,136.97264 154.992203,132.531278 151.851562,126.859375 C148.710922,121.187472 147.140625,114.812535 147.140625,107.734375 C147.140625,100.609339 148.710922,94.2109659 151.851562,88.5390625 C154.992203,82.8671591 159.269504,78.4492346 164.683594,75.2851562 C170.097683,72.1210779 176.203091,70.5390625 183,70.5390625 C189.796909,70.5390625 195.820286,72.1210779 201.070312,75.2851562 C206.320339,78.4492346 210.386704,82.8671591 213.269531,88.5390625 C216.152358,94.2109659 217.59375,100.609339 217.59375,107.734375 L150.023438,107.734375 C150.023438,114.343783 151.441392,120.261693 154.277344,125.488281 C157.113295,130.71487 161.027319,134.792954 166.019531,137.722656 C171.011744,140.652358 176.671843,142.117188 183,142.117188 C188.390652,142.117188 193.371071,141.179697 197.941406,139.304688 L197.941406,139.304688 Z M166.828125,77.3945312 C161.999976,80.042982 158.121108,83.74607 155.191406,88.5039062 C152.261704,93.2617425 150.609377,98.7109068 150.234375,104.851562 L214.710938,104.851562 C214.054684,95.4296404 210.890653,87.8359663 205.21875,82.0703125 C199.546847,76.3046587 192.140671,73.421875 183,73.421875 C177.046845,73.421875 171.656274,74.7460805 166.828125,77.3945312 L166.828125,77.3945312 Z M301.851562,145 L298.96875,145 L298.96875,123.132812 C296.203111,129.929721 291.867217,135.320293 285.960938,139.304688 C280.054658,143.289082 273.210976,145.28125 265.429688,145.28125 C258.539028,145.28125 252.304715,143.675797 246.726562,140.464844 C241.14841,137.25389 236.789078,132.789091 233.648438,127.070312 C230.507797,121.351534 228.9375,114.95316 228.9375,107.875 C228.9375,100.749964 230.507797,94.3047163 233.648438,88.5390625 C236.789078,82.7734087 241.136691,78.2851723 246.691406,75.0742188 C252.246122,71.8632652 258.492153,70.2578125 265.429688,70.2578125 C273.210976,70.2578125 280.042939,72.2499801 285.925781,76.234375 C291.808623,80.2187699 296.156236,85.609341 298.96875,92.40625 L298.96875,38.125 L301.851562,38.125 L301.851562,145 Z M282.691406,137.933594 C287.777369,134.957016 291.761704,130.855495 294.644531,125.628906 C297.527358,120.402318 298.96875,114.484408 298.96875,107.875 C298.96875,101.265592 297.527358,95.3125265 294.644531,90.015625 C291.761704,84.7187235 287.777369,80.5820461 282.691406,77.6054688 C277.605443,74.6288914 271.851595,73.140625 265.429688,73.140625 C259.00778,73.140625 253.242213,74.6288914 248.132812,77.6054688 C243.023412,80.5820461 239.027358,84.7070049 236.144531,89.9804688 C233.261704,95.2539326 231.820312,101.218717 231.820312,107.875 C231.820312,114.484408 233.261704,120.402318 236.144531,125.628906 C239.027358,130.855495 243.011693,134.957016 248.097656,137.933594 C253.183619,140.910171 258.960905,142.398438 265.429688,142.398438 C271.851595,142.398438 277.605443,140.910171 282.691406,137.933594 L282.691406,137.933594 Z M373.628906,139.304688 C378.199242,137.429678 382.007797,134.75783 385.054688,131.289062 L387.09375,133.328125 C383.624983,137.078144 379.441431,139.960927 374.542969,141.976562 C369.644507,143.992198 364.359403,145 358.6875,145 C351.890591,145 345.785183,143.394547 340.371094,140.183594 C334.957004,136.97264 330.679703,132.531278 327.539062,126.859375 C324.398422,121.187472 322.828125,114.812535 322.828125,107.734375 C322.828125,100.609339 324.398422,94.2109659 327.539062,88.5390625 C330.679703,82.8671591 334.957004,78.4492346 340.371094,75.2851562 C345.785183,72.1210779 351.890591,70.5390625 358.6875,70.5390625 C365.484409,70.5390625 371.507786,72.1210779 376.757812,75.2851562 C382.007839,78.4492346 386.074204,82.8671591 388.957031,88.5390625 C391.839858,94.2109659 393.28125,100.609339 393.28125,107.734375 L325.710938,107.734375 C325.710938,114.343783 327.128892,120.261693 329.964844,125.488281 C332.800795,130.71487 336.714819,134.792954 341.707031,137.722656 C346.699244,140.652358 352.359343,142.117188 358.6875,142.117188 C364.078152,142.117188 369.058571,141.179697 373.628906,139.304688 L373.628906,139.304688 Z M342.515625,77.3945312 C337.687476,80.042982 333.808608,83.74607 330.878906,88.5039062 C327.949204,93.2617425 326.296877,98.7109068 325.921875,104.851562 L390.398438,104.851562 C389.742184,95.4296404 386.578153,87.8359663 380.90625,82.0703125 C375.234347,76.3046587 367.828171,73.421875 358.6875,73.421875 C352.734345,73.421875 347.343774,74.7460805 342.515625,77.3945312 L342.515625,77.3945312 Z M455.425781,139.304688 C459.996117,137.429678 463.804672,134.75783 466.851562,131.289062 L468.890625,133.328125 C465.421858,137.078144 461.238306,139.960927 456.339844,141.976562 C451.441382,143.992198 446.156278,145 440.484375,145 C433.687466,145 427.582058,143.394547 422.167969,140.183594 C416.753879,136.97264 412.476578,132.531278 409.335938,126.859375 C406.195297,121.187472 404.625,114.812535 404.625,107.734375 C404.625,100.609339 406.195297,94.2109659 409.335938,88.5390625 C412.476578,82.8671591 416.753879,78.4492346 422.167969,75.2851562 C427.582058,72.1210779 433.687466,70.5390625 440.484375,70.5390625 C447.281284,70.5390625 453.304661,72.1210779 458.554688,75.2851562 C463.804714,78.4492346 467.871079,82.8671591 470.753906,88.5390625 C473.636733,94.2109659 475.078125,100.609339 475.078125,107.734375 L407.507812,107.734375 C407.507812,114.343783 408.925767,120.261693 411.761719,125.488281 C414.59767,130.71487 418.511694,134.792954 423.503906,137.722656 C428.496119,140.652358 434.156218,142.117188 440.484375,142.117188 C445.875027,142.117188 450.855446,141.179697 455.425781,139.304688 L455.425781,139.304688 Z M424.3125,77.3945312 C419.484351,80.042982 415.605483,83.74607 412.675781,88.5039062 C409.746079,93.2617425 408.093752,98.7109068 407.71875,104.851562 L472.195312,104.851562 C471.539059,95.4296404 468.375028,87.8359663 462.703125,82.0703125 C457.031222,76.3046587 449.625046,73.421875 440.484375,73.421875 C434.53122,73.421875 429.140649,74.7460805 424.3125,77.3945312 L424.3125,77.3945312 Z M508.324219,76.0234375 C513.222681,72.4609197 519.187465,70.632813 526.21875,70.5390625 L526.21875,73.421875 C517.781208,73.6093759 511.089868,76.4218478 506.144531,81.859375 C501.199194,87.2969022 498.375004,94.7499527 497.671875,104.21875 L497.671875,145 L494.789062,145 L494.789062,70.5390625 L497.671875,70.5390625 L497.671875,90.859375 C499.875011,84.5312184 503.425757,79.5859553 508.324219,76.0234375 L508.324219,76.0234375 Z M582.140625,73.140625 C586.500022,74.8750087 590.320296,77.3124843 593.601562,80.453125 L591.703125,82.4921875 C585.093717,76.4452823 577.289108,73.421875 568.289062,73.421875 C561.960906,73.421875 556.242213,74.8867041 551.132812,77.8164062 C546.023412,80.7461084 542.027358,84.8007554 539.144531,89.9804688 C536.261704,95.1601821 534.820312,101.078092 534.820312,107.734375 C534.820312,114.343783 536.261704,120.261693 539.144531,125.488281 C542.027358,130.71487 546.011693,134.792954 551.097656,137.722656 C556.183619,140.652358 561.914031,142.117188 568.289062,142.117188 C573.398463,142.117188 578.074198,141.179697 582.316406,139.304688 C586.558615,137.429678 590.226547,134.75783 593.320312,131.289062 L595.21875,133.328125 C591.937484,137.078144 587.964867,139.960927 583.300781,141.976562 C578.636695,143.992198 573.632839,145 568.289062,145 C561.492154,145 555.328153,143.394547 549.796875,140.183594 C544.265597,136.97264 539.929703,132.531278 536.789062,126.859375 C533.648422,121.187472 532.078125,114.812535 532.078125,107.734375 C532.078125,100.609339 533.648422,94.2109659 536.789062,88.5390625 C539.929703,82.8671591 544.253879,78.4492346 549.761719,75.2851562 C555.269559,72.1210779 561.445278,70.5390625 568.289062,70.5390625 C573.164087,70.5390625 577.781228,71.4062413 582.140625,73.140625 L582.140625,73.140625 Z M674.308594,78.3085938 C679.441432,83.4883071 682.007812,90.6952663 682.007812,99.9296875 L682.007812,145 L679.125,145 L679.125,99.9296875 C679.125,91.5858958 676.792992,85.0820546 672.128906,80.4179688 C667.46482,75.7538829 661.007854,73.421875 652.757812,73.421875 C642.867138,73.6093759 635.13284,76.7968441 629.554688,82.984375 C623.976535,89.1719059 621.1875,97.7030706 621.1875,108.578125 L621.1875,145 L618.375,145 L618.375,38.125 L621.1875,38.125 L621.1875,91.984375 C623.578137,85.2812165 627.468723,80.0547062 632.859375,76.3046875 C638.250027,72.5546687 644.882773,70.632813 652.757812,70.5390625 C661.992234,70.5390625 669.175756,73.1288804 674.308594,78.3085938 L674.308594,78.3085938 Z M708.1875,145 L708.1875,70.5390625 L711.070312,70.5390625 L711.070312,145 L708.1875,145 Z M712.300781,46.4570312 C713.027347,47.1835974 713.390625,48.0624948 713.390625,49.09375 C713.390625,50.0312547 713.027347,50.8867149 712.300781,51.6601562 C711.574215,52.4335976 710.67188,52.8203125 709.59375,52.8203125 C708.656245,52.8203125 707.800785,52.4453163 707.027344,51.6953125 C706.253902,50.9453087 705.867188,50.0781299 705.867188,49.09375 C705.867188,48.0156196 706.253902,47.1250035 707.027344,46.421875 C707.800785,45.7187465 708.656245,45.3671875 709.59375,45.3671875 C710.67188,45.3671875 711.574215,45.7304651 712.300781,46.4570312 L712.300781,46.4570312 Z M740.484375,145 L740.484375,38.125 L743.296875,38.125 L743.296875,145 L740.484375,145 Z M837.257812,145 L834.375,145 L834.375,123.132812 C831.609361,129.929721 827.273467,135.320293 821.367188,139.304688 C815.460908,143.289082 808.617226,145.28125 800.835938,145.28125 C793.945278,145.28125 787.710965,143.675797 782.132812,140.464844 C776.55466,137.25389 772.195328,132.789091 769.054688,127.070312 C765.914047,121.351534 764.34375,114.95316 764.34375,107.875 C764.34375,100.749964 765.914047,94.3047163 769.054688,88.5390625 C772.195328,82.7734087 776.542941,78.2851723 782.097656,75.0742188 C787.652372,71.8632652 793.898403,70.2578125 800.835938,70.2578125 C808.617226,70.2578125 815.449189,72.2499801 821.332031,76.234375 C827.214873,80.2187699 831.562486,85.609341 834.375,92.40625 L834.375,38.125 L837.257812,38.125 L837.257812,145 Z M818.097656,137.933594 C823.183619,134.957016 827.167954,130.855495 830.050781,125.628906 C832.933608,120.402318 834.375,114.484408 834.375,107.875 C834.375,101.265592 832.933608,95.3125265 830.050781,90.015625 C827.167954,84.7187235 823.183619,80.5820461 818.097656,77.6054688 C813.011693,74.6288914 807.257845,73.140625 800.835938,73.140625 C794.41403,73.140625 788.648463,74.6288914 783.539062,77.6054688 C778.429662,80.5820461 774.433608,84.7070049 771.550781,89.9804688 C768.667954,95.2539326 767.226562,101.218717 767.226562,107.875 C767.226562,114.484408 768.667954,120.402318 771.550781,125.628906 C774.433608,130.855495 778.417943,134.957016 783.503906,137.933594 C788.589869,140.910171 794.367155,142.398438 800.835938,142.398438 C807.257845,142.398438 813.011693,140.910171 818.097656,137.933594 L818.097656,137.933594 Z" id="thedeerchild"></path>
            </g>
        </g>
    </g>
</svg>